<svg xmlns="http://www.w3.org/2000/svg" viewBox="46 457 1901 303"><path transform="translate(1737,481)" d="m0 0h162l18 2 10 4 9 6 8 11 2 6 1 10-3 19-8 30-8 24-4 6-3 1-22 1h-42l-2-3 12-43 1-5v-12l-4-1h-107l-5 5-7 19-10 36-6 26 17 1h163l9 1-2 10-21 77-5 15-5 5-6 1h-61v-7l8-29 5-23 1-2-117-1-7 22-9 30-5 8-9 2h-61l1-10 18-63 18-60 17-57 8-23 8-15 11-12 11-7 11-4z" fill="#3C3B3B"></path><path transform="translate(1134,481)" d="m0 0h171l12 1 2 1-5 25-8 24-3 3-154 1-15 1-4 6-7 21-1 11 2 5 14 2 113 1 12 2 11 6 7 6 7 10 3 10v8l-4 21-3 6-1 1-66-1-3-4-3-13-1-1-20-1-85-1-21-1-12-2-9-4-9-7-6-9-2-7v-17l5-22 6-20 6-16 6-11 8-10 9-9 14-9 10-4 10-2z" fill="#3C3B3B"></path><path transform="translate(831,479)" d="m0 0 17 1-2 4-11 13-10 14-16 21-12 17-14 18-10 14-10 12-15 20-9 11-24 32-13 17-8 11-13 17-12 16-11 13-5 3h-58l-9-1 6-12 11-13 9-13 16-21 13-18 14-19 10-13 11-14 14-19 13-18 10-13 13-18 16-21 9-13 13-17 7-8 4-2z" fill="#3C3B3B"></path><path transform="translate(935,480)" d="m0 0h64l6 1-2 9-12 40-16 55-15 52-14 51-9 31-5 12-1 1-16 1h-53l-1-1v-7l14-47 15-53 20-68 14-48 8-25z" fill="#3C3B3B"></path><path transform="translate(1390,480)" d="m0 0h216l6 1-1 9-10 38-3 6-2 2h-37l-56 1h-95l-61-1-14-1-2-4 11-38 4-9 2-3z" fill="#3C3B3B"></path><path transform="translate(546,472)" d="m0 0h16l45 1 4 2 8 38 8 45 6 48 1 14-6 11-12 16-10 14-12 16-13 18-6 8-2-1-10-52-13-72-11-60-6-39v-6z" fill="#3C3B3B"></path><path transform="translate(134,550)" d="m0 0h17l12 6 8 9 8 13 17 29 9 15 28 48 17 29 7 12 4 11v12l-6 12-7 8-10 5-6 1h-9l-10-4-8-7-6-7-30-50-15-26-14-24-17-29-10-19-3-9v-8l5-12 9-10z" fill="#16FFF8"></path><path transform="translate(1031,678)" d="m0 0h246l-1 6-10 18-9 11-9 8-11 7-11 3-10 1-39 1h-154l-6-2-1-5 10-39 3-7z" fill="#3C3B3B"></path><path transform="translate(1424,564)" d="m0 0h65l1 1-1 9-11 41-14 48-13 44-7 21-5 4h-66l-1-5 15-54 15-53 12-39 5-13z" fill="#3C3B3B"></path><path transform="translate(200,468)" d="m0 0h16l10 4 9 9 10 16 15 26 9 15 17 29 11 19 5 10 3 9v9l-5 12-9 10-15 6h-7l-12-4-6-4-8-9-8-13-14-24-15-26-14-24-8-14-7-16-2-7 1-8 6-12 5-6 10-6z" fill="#FE5D5A"></path><path transform="translate(336,457)" d="m0 0h8l11 2 10 5 8 8 5 10 3 11-1 11-5 12-7 9-6 5-13 5-4 1h-10l-13-4-7-4-7-7-6-11-2-8v-12l4-12 6-9 7-6 8-4z" fill="#FFAF5C"></path><path transform="translate(81,457)" d="m0 0h9l14 3 9 6 7 8 5 12 1 5v12l-4 11-7 10-7 6-13 5-4 1h-10l-11-3-8-4-8-8-5-8-3-9v-15l5-13 4-6 8-7 11-5z" fill="#933FFA"></path></svg>