<svg xmlns="http://www.w3.org/2000/svg" id="Layer_1" data-name="Layer 1" viewBox="0 0 696.84 106.51"><defs><style>.cls-1{fill:#fff;}.cls-2{fill:#06f7f7;}.cls-3{fill:#ed5f61;}.cls-4{fill:#fab061;}.cls-5{fill:#8b51e8;}</style></defs><polygon class="cls-1" points="133.59 3.63 167.21 3.63 175.47 63.44 145.6 101.82 133.59 3.63"></polygon><polygon class="cls-1" points="227.09 3.65 265.96 5.08 186.03 105.78 149.76 106.51 227.09 3.65"></polygon><polygon class="cls-1" points="289.85 0.34 327.57 0.34 295.56 106.51 258.23 106.51 289.85 0.34"></polygon><path class="cls-1" d="M519,564.48l108.61,2.07S623.06,587,604.83,593c0,0-89.13-.71-89.7,0S519,564.48,519,564.48Z" transform="translate(-191.58 -486.5)"></path><path class="cls-1" d="M639.72,489.6l-5.58,20.24c-.13.46-1.16,4.55-1.63,4.55L569,512.73a8.94,8.94,0,0,0-1.67.32c-1.52.37-3.46,1.76-4.1,6.27-.68,4.74,1.83,8.49,6.61,8.6l45,1c4.12.09,10.25,1.75,12.93,4.88,3.66,4.26,7.73,14.45,2.62,26.76H596.72l.08-10a1.07,1.07,0,0,0-1-1l-44.58.25c-8.44-.08-19.37-1.68-22-9.67-4.29-12.79-2.44-37.25,20.15-50.24a13.48,13.48,0,0,1,5.62-1.53H638.7A1.06,1.06,0,0,1,639.72,489.6Z" transform="translate(-191.58 -486.5)"></path><polygon class="cls-1" points="457.76 0.1 573.07 0.1 564.15 26.9 451.76 26.81 457.76 0.1"></polygon><polygon class="cls-1" points="488.11 32.49 522.11 32.49 500.42 106.51 465.73 106.51 488.11 32.49"></polygon><path class="cls-1" d="M747.49,592.28,778,499s4.72-11.61,19.42-12.52h77.51s16.88,5.26,12.89,21.6L880,539.4,844.84,539l6.77-25.1-44.68-.58L795.67,545l82.57.06-13.67,47.57-36.36.42,8.12-26.31-45.84,1-8.27,24.56-34.73,0" transform="translate(-191.58 -486.5)"></path><rect class="cls-2" x="225.13" y="516.49" width="27.56" height="79.9" rx="13.78" transform="translate(-446.41 -280.66) rotate(-31.39)"></rect><rect class="cls-3" x="250.98" y="484.05" width="27.56" height="73.92" rx="13.78" transform="translate(-424.17 -272.38) rotate(-31.39)"></rect><circle class="cls-4" cx="106.32" cy="13.33" r="12.89"></circle><circle class="cls-5" cx="12.89" cy="13.33" r="12.89"></circle></svg>